<?xml version="1.0" standalone="no"?><!DOCTYPE svg PUBLIC "-//W3C//DTD SVG 1.1//EN" "http://www.w3.org/Graphics/SVG/1.1/DTD/svg11.dtd"><svg t="1559633156354" class="icon" style="" viewBox="0 0 1024 1024" version="1.1" xmlns="http://www.w3.org/2000/svg" p-id="10783" xmlns:xlink="http://www.w3.org/1999/xlink" width="200" height="200"><defs><style type="text/css"></style></defs><path d="M512 512m-512 0a512 512 0 1 0 1024 0 512 512 0 1 0-1024 0Z" fill="#ED4F4E" p-id="10784"></path><path d="M724 503.936l-88.96-88.96a11.168 11.168 0 0 0-15.776 0l-17.984 17.984a11.168 11.168 0 0 0 0 15.808l39.232 39.232h-178.88a11.168 11.168 0 0 0-11.136 11.2v25.408c0 6.176 4.992 11.168 11.168 11.168h178.752l-39.232 39.232a11.168 11.168 0 0 0 0 15.808l17.984 17.984a11.168 11.168 0 0 0 15.808 0l71.04-71.072 17.984-17.984a11.168 11.168 0 0 0 0-15.808z m-153.248-207.168h-240.544c-18.496 0-33.472 15.008-33.472 33.504v363.232c0 18.496 14.976 33.504 33.472 33.504h240.544c18.496 0 33.504-15.008 33.504-33.504V646.4a11.168 11.168 0 0 0-11.2-11.168h-24.16a11.168 11.168 0 0 0-11.2 11.2v17.92c0 16.512 0 16.512-16.736 16.512h-181.44c-16.736 0-16.736 0-16.736-16.736v-304.8c0-16.8 0-16.736 16.768-16.736h181.44c16.736 0 16.736 0.128 16.736 16.512v18.464c0 6.176 4.992 11.168 11.168 11.168h24.192a11.168 11.168 0 0 0 11.168-11.168v-47.264c0-18.496-15.008-33.504-33.504-33.504z" fill="#FFFFFF" p-id="10785"></path></svg>